/* XPM */
static char * file_xpm[] = {
"16 16 3 1",
" 	c None",
".	c #0299FE",
"+	c #0D90E7",
"                ",
"  .......+.     ",
"  .      . .    ",
"  .      .  .   ",
"  .      .   .  ",
"  .      .....  ",
"  .          .  ",
"  . ........ .  ",
"  .          .  ",
"  .   ....   .  ",
"  .          .  ",
"  . ........ .  ",
"  .          .  ",
"  . ........ .  ",
"  .          .  ",
"  ............  "};
