/* XPM */
static char * next_inactive_xpm[] = {
"16 16 2 1",
" 	c None",
".	c #808080",
"                ",
"             .. ",
"     .       .. ",
"     ..      .. ",
"     ...     .. ",
"     ....    .. ",
"     .....   .. ",
"     ......  .. ",
"     ......  .. ",
"     .....   .. ",
"     ....    .. ",
"     ...     .. ",
"     ..      .. ",
"     .       .. ",
"             .. ",
"                "};
