/* XPM */
static char * play_inactive_xpm[] = {
"16 16 3 1",
" 	c None",
".	c #808080",
"+	c #81817E",
"                ",
"                ",
" ..             ",
" ....           ",
" ......         ",
" ........       ",
" .++.......     ",
" +++.........   ",
" ++............ ",
" ............   ",
" ..........     ",
" ........       ",
" ......         ",
" ....           ",
" ..             ",
"                "};
