/* XPM */
static char * preferences_active_xpm[] = {
"16 16 2 1",
" 	c None",
".	c #0299FE",
"                ",
"                ",
"   ..       ..  ",
"   ..       ..  ",
"   ..       ..  ",
" ......     ..  ",
" ......     ..  ",
"   ..       ..  ",
"   ..       ..  ",
"   ..       ..  ",
"   ..       ..  ",
"   ..       ..  ",
"   ..       ..  ",
"   ..     ......",
"   ..     ......",
"                "};
