/* XPM */
static char * repeat_playlist_xpm[] = {
"16 16 2 1",
" 	c None",
".	c #00AF00",
"        .       ",
"        ..      ",
"  ......... ....",
"  .........     ",
"  ..    ..  ....",
"  ..    .       ",
"  ..        ....",
"  ..            ",
"            ..  ",
"....        ..  ",
"       .    ..  ",
"....  ..    ..  ",
"     .........  ",
".... .........  ",
"      ..        ",
"       .        "};
