/* XPM */
static char * volume_mute_xpm[] = {
"16 16 3 1",
" 	c None",
".	c #0098FF",
"+	c #F90000",
"                ",
"                ",
"       .        ",
"      ..        ",
"     ...        ",
"........  +   + ",
"........   + +  ",
"........    +   ",
"........   + +  ",
"........  +   + ",
"........        ",
"     ...        ",
"      ..        ",
"       .        ",
"                ",
"                "};
