/* XPM */
static char * watch_active_xpm[] = {
"16 16 2 1",
" 	c None",
".	c #0299FE",
"                ",
"                ",
"                ",
"                ",
" .            . ",
". . ..    .. . .",
".  ....  ....  .",
"  ............  ",
"  ............  ",
"   ....  ....   ",
"    ..    ..    ",
"                ",
"                ",
"                ",
"                ",
"                "};
